<?xml version="1.0" standalone="no"?>
<!DOCTYPE svg PUBLIC "-//W3C//DTD SVG 20010904//EN"
 "http://www.w3.org/TR/2001/REC-SVG-20010904/DTD/svg10.dtd">
<svg version="1.0" xmlns="http://www.w3.org/2000/svg"
 width="256.000000pt" height="256.000000pt" viewBox="0 0 256.000000 256.000000"
 preserveAspectRatio="xMidYMid meet">
<metadata>
Created by potrace 1.11, written by Peter Selinger 2001-2013
</metadata>
<g transform="translate(0.000000,256.000000) scale(0.100000,-0.100000)"
fill="#000000" stroke="none">
<path d="M0 1280 l0 -1280 1280 0 1280 0 0 1280 0 1280 -1280 0 -1280 0 0
-1280z m588 591 l76 -255 85 257 86 257 107 0 106 0 84 -250 c45 -137 86 -246
89 -242 4 4 40 116 80 250 l72 242 129 0 c99 0 129 -3 125 -12 -2 -7 -69 -210
-148 -450 l-144 -437 -110 -1 -110 0 -84 246 c-47 135 -87 247 -91 249 -3 2
-44 -108 -91 -243 l-86 -247 -109 -3 -110 -3 -143 438 c-79 241 -146 444 -149
451 -3 10 24 12 128 10 l132 -3 76 -254z m1387 -676 c70 -15 185 -66 206 -92
11 -13 -20 -67 -94 -165 -12 -15 -19 -13 -85 19 -122 61 -272 57 -272 -7 0
-38 35 -56 164 -89 255 -63 338 -141 323 -302 -14 -163 -152 -259 -370 -259
-135 0 -293 52 -382 124 l-29 24 59 68 c32 38 63 75 69 81 9 10 21 6 56 -17
98 -66 286 -94 330 -50 27 27 25 56 -5 76 -14 9 -76 29 -137 45 -62 16 -138
39 -168 51 -71 29 -135 92 -150 150 -16 56 -7 144 18 194 20 40 81 102 121
123 74 40 226 51 346 26z"/>
</g>
</svg>
